HIERARCHY
ROOT Hips
{
	OFFSET -3.958830 18.904000 13.208200
	CHANNELS 6 Xposition Yposition Zposition Zrotation Yrotation Xrotation 
	JOINT LHipJoint
	{
		OFFSET 0.000000 0.000000 0.000000
		CHANNELS 3 Zrotation Yrotation Xrotation
		JOINT LeftUpLeg
		{
			OFFSET 1.800000 -1.400000 0.085000
			CHANNELS 3 Zrotation Yrotation Xrotation
			JOINT LeftLeg
			{
				OFFSET 2.215000 -6.000000 0.000000
				CHANNELS 3 Zrotation Yrotation Xrotation
				JOINT LeftFoot
				{
					OFFSET 2.500000 -6.900000 0.000000
					CHANNELS 3 Zrotation Yrotation Xrotation
					JOINT LeftToeBase
					{
						OFFSET 0.200000 -0.500000 1.950000
						CHANNELS 3 Zrotation Yrotation Xrotation
						End Site
						{
							OFFSET 0.000000 0.000000 0.000000
						}
					}
				}
			}
		}
	}
	JOINT RHipJoint
	{
		OFFSET 0.000000 0.000000 0.000000
		CHANNELS 3 Zrotation Yrotation Xrotation
		JOINT RightUpLeg
		{
			OFFSET -1.800000 -1.400000 0.085000
			CHANNELS 3 Zrotation Yrotation Xrotation
			JOINT RightLeg
			{
				OFFSET -2.215000 -6.000000 0.000000
				CHANNELS 3 Zrotation Yrotation Xrotation
				JOINT RightFoot
				{
					OFFSET -2.500000 -6.900000 0.000000
					CHANNELS 3 Zrotation Yrotation Xrotation
					JOINT RightToeBase
					{
						OFFSET -0.200000 -0.500000 1.950000
						CHANNELS 3 Zrotation Yrotation Xrotation
						End Site
						{
							OFFSET 0.000000 0.000000 0.000000
						}
					}
				}
			}
		}
	}
	JOINT LowerBack
	{
		OFFSET 0.000000 0.000000 0.000000
		CHANNELS 3 Zrotation Yrotation Xrotation
		JOINT Spine
		{
			OFFSET -0.087000 1.940000 -0.288900
			CHANNELS 3 Zrotation Yrotation Xrotation
			JOINT Spine1
			{
				OFFSET 0.000000 1.950000 0.060000
				CHANNELS 3 Zrotation Yrotation Xrotation
				JOINT Neck
				{
					OFFSET 0.000000 0.000000 0.000000
					CHANNELS 3 Zrotation Yrotation Xrotation
					JOINT Neck1
					{
						OFFSET 0.000000 1.600000 0.340000
						CHANNELS 3 Zrotation Yrotation Xrotation
						JOINT Head
						{
							OFFSET 0.000000 1.667000 -0.240000
							CHANNELS 3 Zrotation Yrotation Xrotation
							End Site
							{
								OFFSET 0.000000 0.000000 0.000000
							}
						}
					}
				}
				JOINT LeftShoulder
				{
					OFFSET 0.000000 0.000000 0.000000
					CHANNELS 3 Zrotation Yrotation Xrotation
					JOINT LeftArm
					{
						OFFSET 2.700000 1.550000 -0.730000
						CHANNELS 3 Zrotation Yrotation Xrotation
						JOINT LeftForeArm
						{
							OFFSET 5.450000 0.000000 0.000000
							CHANNELS 3 Zrotation Yrotation Xrotation
							JOINT LeftHand
							{
								OFFSET 3.450000 0.000000 0.000000
								CHANNELS 3 Zrotation Yrotation Xrotation
								JOINT LeftHandIndex1
								{
									OFFSET 0.750000 0.000000 0.000000
									CHANNELS 3 Zrotation Yrotation Xrotation
									End Site
									{
										OFFSET 0.000000 0.000000 0.000000
									}
								}
							}
						}
					}
				}
				JOINT RightShoulder
				{
					OFFSET 0.000000 0.000000 0.000000
					CHANNELS 3 Zrotation Yrotation Xrotation
					JOINT RightArm
					{
						OFFSET -2.700000 1.550000 -0.730000
						CHANNELS 3 Zrotation Yrotation Xrotation
						JOINT RightForeArm
						{
							OFFSET -5.450000 0.000000 0.000000
							CHANNELS 3 Zrotation Yrotation Xrotation
							JOINT RightHand
							{
								OFFSET -3.450000 0.000000 0.000000
								CHANNELS 3 Zrotation Yrotation Xrotation
								JOINT RightHandIndex1
								{
									OFFSET -0.750000 0.000000 0.000000
									CHANNELS 3 Zrotation Yrotation Xrotation
									End Site
									{
										OFFSET 0.000000 0.000000 0.000000
									}
								}
							}
						}
					}
				}
			}
		}
	}
}
MOTION
Frames: 8
Frame Time: 0.016667
2.021290 17.191080 -1.383410 -3.200075 -21.322463 5.798534 -15.007465 13.187218 3.496219 0.267915 -3.337168 -22.914552 -8.191488 9.133445 30.602464 -0.629667 6.462944 2.604377 0.194680 -0.350150 -0.087030 18.314255 -11.045286 3.118657 -1.830671 -1.264881 3.999565 5.213594 -6.136251 9.342374 -0.818569 -4.742678 3.184449 -0.122470 0.791670 0.513610 -3.522123 -1.494818 -7.978346 11.783446 5.188185 13.436666 -4.380226 7.468017 0.217339 4.374145 -2.141567 -11.547711 -5.622955 5.660014 37.601942 -9.134560 6.642750 -13.035730 -20.682941 -7.176910 4.295424 -0.054265 13.571654 1.224139 13.043678 -3.515538 -1.256195 -4.273764 2.531886 0.991700 0.414590 -0.060820 0.501880 11.932554 11.800440 7.090462 -5.134751 0.829688 -5.063627 -24.750525 8.569462 -1.256307 1.730903 -1.199208 -0.502470 0.594210 0.344140 -0.281740 
2.029270 17.171130 -1.391200 -2.944378 -21.481996 5.899520 -15.017086 13.139949 3.445945 0.750912 -3.277941 -23.074843 -8.093444 9.132107 30.628921 -0.678431 6.494081 2.594476 0.175350 -0.333720 -0.120150 18.322655 -11.059778 3.081945 -2.103248 -1.255432 3.794910 5.080421 -6.067374 9.086341 -0.787591 -4.759162 3.184541 -0.080380 0.835080 0.491310 -3.530451 -1.390456 -7.871679 11.221712 5.201652 13.010821 -4.152251 7.242942 0.997104 4.310650 -2.116109 -10.949568 -5.182794 5.796179 35.685524 -9.465620 6.889210 -13.275640 -20.594350 -6.855089 3.952773 0.074799 12.435902 1.192856 13.718561 -3.706344 -1.294382 -4.328764 2.507562 0.959080 0.457190 -0.095520 0.500890 11.953081 11.305534 6.654712 -5.694574 2.025229 -4.991702 -24.229063 7.312489 -1.202344 1.722913 -1.199894 -0.538120 0.636280 0.364120 -0.276400 
2.047650 17.124310 -1.395060 -2.606322 -22.228380 6.179462 -15.018788 13.095757 3.316965 1.487201 -3.113152 -23.093049 -7.285657 8.785474 30.357493 -0.762047 6.397024 2.629064 0.244180 -0.238300 -0.092620 18.347107 -11.103172 3.005250 -2.928374 -1.120601 3.344434 5.257606 -6.051147 9.052898 -0.777106 -4.815695 3.152646 0.010160 0.864840 0.505240 -3.580956 -1.238052 -7.628942 10.500195 5.205421 11.821782 -3.664403 6.798447 2.532099 4.016006 -2.700439 -9.931093 -5.679557 6.543898 32.423867 -9.407560 7.194910 -13.974680 -20.260562 -6.074080 3.419031 -0.199961 10.325025 1.246900 13.483017 -3.007708 -1.336180 -4.374961 2.541593 0.916280 0.500840 -0.116410 0.530060 12.231006 10.617976 5.841769 -7.544466 3.682607 -4.784852 -23.098090 6.308861 -1.223609 1.705334 -1.259536 -0.541590 0.652260 0.334140 -0.269290 
2.075740 17.087260 -1.402430 -2.378569 -22.903682 6.194974 -15.014399 13.189319 3.180548 2.458754 -2.828476 -22.851387 -5.711250 8.188499 30.173743 -0.874613 6.247177 2.682796 0.281100 -0.183900 -0.097810 18.345799 -11.162905 2.953672 -3.657005 -1.005298 2.930215 5.183800 -6.059880 9.482857 -0.771135 -4.843436 3.132795 0.071150 0.900430 0.505520 -3.575733 -1.254180 -7.469669 9.790382 4.969547 11.267550 -3.382722 6.323315 3.000358 3.690571 -3.033818 -9.318560 -6.016421 7.635922 31.089799 -8.659840 7.675440 -14.596750 -19.983692 -5.580060 3.104236 0.137935 9.269468 1.412845 12.833028 -2.722358 -1.385284 -4.385126 2.547842 0.923870 0.522080 -0.128560 0.558370 12.636405 10.141623 5.210845 -7.910513 5.149695 -4.875381 -23.046585 5.474828 -1.275559 1.682947 -1.288282 -0.570680 0.685550 0.328270 -0.265820 
2.106280 17.045790 -1.410470 -2.218845 -23.514717 6.423598 -15.019498 13.316796 3.014128 3.778679 -2.411283 -22.475434 -4.122854 7.524744 29.416608 -0.965041 6.033768 2.758177 0.322150 -0.128350 -0.081710 18.336340 -11.227682 2.875468 -4.157318 -0.839104 2.033513 4.885191 -6.028660 10.477008 -0.748512 -4.829189 3.118584 0.124000 0.925970 0.527180 -3.541687 -1.301539 -7.267076 8.937619 4.698019 10.450884 -2.736526 5.695503 3.660875 3.317429 -3.333122 -8.700016 -6.262057 8.475103 29.143853 -8.487660 8.143530 -14.972530 -19.462576 -4.937854 2.843112 0.183035 8.838595 1.551027 11.874400 -3.609650 -1.466680 -4.396548 2.591480 0.898090 0.554010 -0.137910 0.575160 12.945720 9.499560 4.575043 -8.066770 6.229850 -4.858985 -23.133732 5.333564 -1.401828 1.660573 -1.335851 -0.568360 0.694280 0.317110 -0.259490 
2.146270 17.000700 -1.412310 -2.678672 -23.919919 6.717929 -14.983354 13.475893 2.838390 5.649408 -1.846373 -21.582545 -2.921641 6.899263 27.872762 -1.065568 5.790165 2.845548 0.351230 -0.098080 -0.057810 18.354071 -11.321883 2.831736 -4.008485 -0.708057 1.123662 4.384549 -6.010961 12.075509 -0.734117 -4.797665 3.110635 0.161810 0.940000 0.544480 -3.599446 -1.316414 -7.120127 9.436107 4.167645 10.006556 -2.821542 5.067871 3.789403 3.158238 -3.450813 -8.178975 -6.337377 8.953165 28.231813 -8.327790 8.296570 -15.660110 -19.342942 -4.466889 2.459151 0.317037 7.058747 1.661349 12.011978 -1.547189 -1.451231 -4.463205 2.560875 0.894790 0.572660 -0.137840 0.576940 13.096515 8.766850 4.082681 -7.808073 6.776223 -4.793714 -23.198841 5.918718 -1.529964 1.623185 -1.347002 -0.572840 0.714180 0.319200 -0.266150 
2.187930 16.945830 -1.410600 -3.543782 -24.457729 7.224564 -14.927404 13.598899 2.674725 7.726563 -1.233852 -20.446236 -2.278443 6.385331 25.588779 -1.206016 5.545337 2.927833 0.373740 -0.075310 -0.056360 18.398326 -11.416230 2.782984 -3.345465 -0.494914 -0.089891 3.552148 -5.961911 14.289238 -0.735783 -4.761180 3.091994 0.198730 0.959930 0.569880 -3.734223 -1.275386 -6.964779 10.643922 3.528805 9.475222 -3.367523 4.429976 4.310251 2.988844 -3.659422 -7.906826 -6.542911 9.658449 26.855292 -8.039990 8.481540 -17.636500 -19.080624 -4.325849 2.381558 0.491486 6.283643 1.809207 12.211953 -0.151365 -1.482136 -4.502644 2.530391 0.941520 0.578220 -0.122100 0.583120 13.103154 8.305391 3.770395 -7.216423 7.024325 -4.783579 -23.294068 7.080208 -1.685827 1.556614 -1.333346 -0.598500 0.749680 0.343260 -0.275700 
2.233420 16.883560 -1.402060 -4.305558 -24.895650 7.935189 -14.875734 13.646858 2.556163 9.551948 -0.816986 -19.513192 -1.925357 6.052692 23.594677 -1.237665 5.333068 3.006534 0.432580 -0.001410 -0.030900 18.449606 -11.503301 2.704266 -2.727164 -0.050213 -1.886224 2.880578 -5.914595 17.356246 -0.719241 -4.789691 3.065520 0.243060 0.961240 0.586570 -3.889551 -1.144527 -6.797957 11.859662 2.872323 8.431654 -3.918059 3.680920 5.045866 2.817553 -3.795822 -7.733408 -6.616558 10.474596 25.480771 -7.728110 9.043980 -17.020420 -18.561495 -4.204456 2.474748 0.496755 6.074078 1.897026 12.043296 0.614276 -1.449906 -4.513954 2.599018 0.896230 0.600480 -0.133460 0.605120 12.901548 7.842591 3.500238 -6.547307 7.227017 -4.677556 -23.931525 7.520794 -1.924834 1.541056 -1.418570 -0.567130 0.722620 0.306560 -0.265310 
